<svg xmlns="http://www.w3.org/2000/svg" width="70" height="48" fill="none"><path fill="#006BAB" d="m24.403 39.851 6.796-11.775H17.606l6.797 11.775Z"/><path fill="#079CD5" d="M17.606 28.076h13.593L24.403 16.3l-6.797 11.776Z"/><path fill="#60C9EE" d="M22.548 13.092H8.966l8.64 14.984L24.403 16.3l-1.855-3.208Z"/><path fill="#006BAB" d="M26.258 13.092 24.403 16.3 31.2 28.076l8.64-14.984H26.257Z"/><path fill="#079CD5" d="M2.664 14.714H.152v-6.7C.152 3.597 3.744 0 8.158 0h6.69v2.515h-6.69c-3.029 0-5.494 2.468-5.494 5.5v6.699ZM48.033 14.714h-2.512v-6.7c0-3.031-2.465-5.5-5.493-5.5h-6.692V0h6.692c4.413 0 8.005 3.596 8.005 8.015v6.699ZM40.028 47.901h-6.692v-2.515h6.692c3.028 0 5.493-2.468 5.493-5.5v-6.698h2.512v6.698c0 4.42-3.592 8.015-8.005 8.015ZM14.836 47.901H8.145c-4.414 0-8.006-3.596-8.006-8.015v-6.698h2.512v6.698c0 3.032 2.465 5.5 5.494 5.5h6.691v2.515Z"/><path fill="#fff" d="M58.61 10.154h2.054l3.545 10.06 3.498-10.06h1.972L65.371 22.14h-2.43L58.61 10.154ZM71.228 6.393c0-.681.576-1.257 1.257-1.257.68 0 1.256.576 1.256 1.257 0 .682-.576 1.258-1.256 1.258-.681 0-1.257-.564-1.257-1.258Zm.34 3.76h1.903v11.988h-1.902V10.154ZM75.713 18.45h1.855c.141 1.423.892 2.316 2.817 2.316 1.808 0 2.606-.623 2.606-1.904 0-1.257-.939-1.669-2.793-2.021-3.111-.576-4.168-1.446-4.168-3.526 0-2.221 2.172-3.373 4.05-3.373 2.148 0 4.003.87 4.332 3.455H82.58c-.27-1.304-1.01-1.88-2.513-1.88-1.373 0-2.265.682-2.265 1.716 0 1.081.599 1.516 2.794 1.904 2.477.458 4.214 1.01 4.214 3.549 0 2.174-1.49 3.643-4.39 3.643-2.876.012-4.59-1.434-4.708-3.878ZM87.428 19.132v-7.38h-1.714v-1.598h1.714V7.427h1.902v2.727h2.794v1.598H89.33v7.192c0 1.164.528 1.74 1.49 1.74.6 0 1.057-.094 1.468-.247v1.598c-.387.141-.845.247-1.62.247-2.183.012-3.24-1.27-3.24-3.15ZM93.615 18.815c0-2.773 2.935-3.714 5.999-3.714h1.714v-.87c0-1.903-.728-2.702-2.56-2.702-1.643 0-2.558.681-2.746 2.15H94.12c.246-2.726 2.43-3.737 4.742-3.737 2.289 0 4.367.94 4.367 4.29v7.909h-1.901v-1.516c-.893 1.128-1.972 1.716-3.733 1.716-2.219 0-3.98-1.07-3.98-3.526Zm7.713-.87v-1.492h-1.644c-2.406 0-4.167.6-4.167 2.362 0 1.234.599 2.021 2.266 2.021 2.007-.011 3.545-1.034 3.545-2.89ZM58.844 34.469v-.2c0-4.219 3.017-6.793 6.738-6.793 3.017 0 5.81 1.328 6.14 5.065h-3.416c-.247-1.527-1.174-2.22-2.642-2.22-1.866 0-3.122 1.398-3.122 3.901v.2c0 2.62 1.174 3.972 3.193 3.972 1.444 0 2.618-.846 2.794-2.527h3.263c-.2 3.103-2.442 5.242-6.233 5.242-3.827 0-6.715-2.374-6.715-6.64ZM73.037 34.445v-.2c0-4.101 2.97-6.769 6.89-6.769 3.921 0 6.856 2.621 6.856 6.699v.2c0 4.125-2.97 6.745-6.89 6.745-3.886-.011-6.856-2.608-6.856-6.675Zm10.084-.047v-.176c0-2.503-1.174-3.996-3.193-3.996-1.996 0-3.193 1.446-3.193 3.949v.2c0 2.503 1.15 3.995 3.193 3.995 2.019 0 3.193-1.504 3.193-3.972ZM88.484 27.77H92.1v2.068c.646-1.304 2.066-2.373 4.238-2.373 2.57 0 4.39 1.55 4.39 5.041v8.32h-3.616v-7.791c0-1.775-.704-2.62-2.3-2.62-1.55 0-2.724.951-2.724 2.867v7.545h-3.615V27.77h.011ZM102.853 27.77h3.615v2.068c.646-1.304 2.066-2.373 4.238-2.373 2.571 0 4.39 1.55 4.39 5.041v8.32h-3.616v-7.791c0-1.775-.704-2.62-2.3-2.62-1.55 0-2.724.951-2.724 2.867v7.545h-3.615V27.77h.012ZM116.669 34.469v-.2c0-4.125 2.923-6.793 6.715-6.793 3.369 0 6.362 1.975 6.362 6.64v1h-9.402c.105 2.173 1.267 3.419 3.24 3.419 1.666 0 2.5-.729 2.723-1.822h3.416c-.423 2.82-2.665 4.396-6.233 4.396-3.945 0-6.821-2.468-6.821-6.64Zm9.556-1.575c-.129-1.974-1.127-2.926-2.841-2.926-1.62 0-2.723 1.07-2.993 2.926h5.834ZM131.096 34.469v-.2c0-4.219 3.017-6.793 6.738-6.793 3.017 0 5.81 1.328 6.139 5.065h-3.428c-.246-1.527-1.174-2.22-2.641-2.22-1.866 0-3.122 1.398-3.122 3.901v.2c0 2.62 1.174 3.972 3.193 3.972 1.443 0 2.617-.846 2.793-2.527h3.264c-.2 3.103-2.442 5.242-6.234 5.242-3.815 0-6.702-2.374-6.702-6.64ZM146.837 30.344h-1.866V27.77h1.866v-2.82h3.616v2.82H153v2.574h-2.547v10.494h-3.616V30.344Z"/></svg>
